<?xml version="1.0" encoding="utf-8"?>
<!-- Generator: Adobe Illustrator 24.1.2, SVG Export Plug-In . SVG Version: 6.00 Build 0)  -->
<svg version="1.1" id="Layer_1" xmlns="http://www.w3.org/2000/svg" xmlns:xlink="http://www.w3.org/1999/xlink" x="0px" y="0px"
	 viewBox="0 0 500 95" style="enable-background:new 0 0 500 95;" xml:space="preserve">
<style type="text/css">
	.st0{fill:#FFFFFF;}
	.st1{fill:#45C6EF;}
</style>
<g>
	<path class="st0" d="M29.85,83.94L1.44,2.54h4c7.27,0,13.71,4.66,15.99,11.56L39.9,69.95h-3.17L59.02,2.54h16.17l-28.3,81.4H29.85z
		"/>
	<path class="st0" d="M84.26,83.94V2.54h54.08v13.11H99.12v20.87h37.04v13.11H99.12v21.2h39.22v13.11H84.26z"/>
	<path class="st0" d="M149.26,83.94V2.54h11.58l44.8,60.31l-6.01,1.2V2.54h14.86v81.4H202.8l-44.14-60.75l5.46-1.2v61.95H149.26z"/>
	<path class="st0" d="M244.65,83.94V15.65h-21.09V2.54h56.81v13.11h-20.76v68.29H244.65z"/>
	<path class="st1" d="M289.44,83.94V2.54h14.86v81.4H289.44z"/>
	<path class="st1" d="M360.02,85.25c-5.97,0-11.55-1.06-16.72-3.17c-5.17-2.11-9.69-5.06-13.55-8.85
		c-3.86-3.79-6.87-8.25-9.01-13.38c-2.15-5.14-3.22-10.69-3.22-16.66c0-6.05,1.05-11.62,3.17-16.72c2.11-5.1,5.1-9.54,8.96-13.33
		c3.86-3.79,8.37-6.72,13.55-8.79c5.17-2.08,10.78-3.11,16.83-3.11c6.04,0,11.65,1.05,16.82,3.17c5.17,2.11,9.69,5.04,13.55,8.8
		c3.86,3.75,6.86,8.18,9.02,13.27c2.15,5.1,3.22,10.67,3.22,16.72c0,5.97-1.09,11.53-3.28,16.66c-2.19,5.14-5.21,9.6-9.07,13.38
		c-3.86,3.79-8.36,6.74-13.49,8.85C371.66,84.19,366.07,85.25,360.02,85.25z M360.02,71.7c4,0,7.68-0.71,11.04-2.13
		c3.35-1.42,6.28-3.41,8.8-5.96c2.51-2.55,4.44-5.57,5.79-9.07s2.02-7.28,2.02-11.36c0-4.08-0.67-7.85-2.02-11.31
		c-1.35-3.46-3.28-6.48-5.79-9.07c-2.51-2.58-5.45-4.57-8.8-5.95c-3.35-1.38-7.03-2.08-11.04-2.08c-3.93,0-7.58,0.69-10.93,2.08
		c-3.35,1.38-6.28,3.37-8.8,5.95c-2.51,2.59-4.46,5.61-5.85,9.07c-1.38,3.46-2.07,7.23-2.07,11.31c0,4.08,0.69,7.87,2.07,11.36
		s3.33,6.52,5.85,9.07c2.51,2.55,5.44,4.53,8.8,5.96C352.45,70.99,356.09,71.7,360.02,71.7z M378.82,93.77l-12.67-21.2l12.48-5.28
		l16.03,26.47H378.82z"/>
	<path class="st1" d="M455.95,85.25c-5.97,0-11.55-1.06-16.72-3.17c-5.17-2.11-9.69-5.06-13.55-8.85
		c-3.86-3.79-6.87-8.25-9.01-13.38c-2.15-5.14-3.22-10.69-3.22-16.66c0-6.05,1.05-11.62,3.17-16.72c2.11-5.1,5.1-9.54,8.96-13.33
		c3.86-3.79,8.37-6.72,13.55-8.79c5.17-2.08,10.78-3.11,16.83-3.11c6.04,0,11.65,1.05,16.82,3.17c5.17,2.11,9.69,5.04,13.55,8.8
		c3.86,3.75,6.86,8.18,9.02,13.27c2.15,5.1,3.22,10.67,3.22,16.72c0,5.97-1.09,11.53-3.28,16.66s-5.21,9.6-9.07,13.38
		c-3.86,3.79-8.36,6.74-13.49,8.85C467.59,84.19,461.99,85.25,455.95,85.25z M455.95,71.7c4,0,7.68-0.71,11.04-2.13
		c3.35-1.42,6.28-3.41,8.8-5.96c2.51-2.55,4.44-5.57,5.79-9.07s2.02-7.28,2.02-11.36c0-4.08-0.67-7.85-2.02-11.31
		c-1.35-3.46-3.28-6.48-5.79-9.07c-2.51-2.58-5.45-4.57-8.8-5.95c-3.35-1.38-7.03-2.08-11.04-2.08c-3.93,0-7.58,0.69-10.93,2.08
		c-3.35,1.38-6.28,3.37-8.8,5.95c-2.51,2.59-4.46,5.61-5.85,9.07c-1.38,3.46-2.07,7.23-2.07,11.31c0,4.08,0.69,7.87,2.07,11.36
		s3.33,6.52,5.85,9.07c2.51,2.55,5.44,4.53,8.8,5.96C448.37,70.99,452.02,71.7,455.95,71.7z"/>
</g>
</svg>
